<svg version="1.1" id="Layer_1" xmlns="http://www.w3.org/2000/svg" xmlns:xlink="http://www.w3.org/1999/xlink" x="0px" y="0px"
	 width="100%" viewBox="0 0 211 211" enable-background="new 0 0 211 211" xml:space="preserve">
<path fill="#9D0D0D" opacity="1.000000" stroke="none" 
	d="
M118.000000,212.000000 
	C117.250000,212.000000 116.500000,212.000000 115.111832,211.670837 
	C109.649117,211.561127 104.824554,211.780563 100.000000,212.000000 
	C97.629440,212.000000 95.258888,212.000000 92.323616,211.622375 
	C90.473137,210.927780 89.199844,210.543060 87.899796,210.303665 
	C44.081520,202.234650 10.965059,169.176331 2.712063,125.320709 
	C2.430783,123.826012 1.583474,122.437828 0.999998,121.000000 
	C1.000000,111.979103 1.000000,102.958214 1.360911,93.301056 
	C1.814457,92.346672 1.947311,92.034332 1.994031,91.709610 
	C8.795633,44.434402 45.654106,9.562795 88.658951,2.488563 
	C89.822762,2.297118 90.888519,1.509570 92.000000,0.999999 
	C100.687561,1.000000 109.375130,1.000000 118.691772,1.374050 
	C164.778336,8.079000 199.636230,39.915245 209.571625,84.151062 
	C210.312439,87.449463 211.187393,90.717728 212.000000,94.000000 
	C212.000000,94.750000 212.000000,95.500000 211.706863,96.777855 
	C211.337616,98.166275 211.261505,99.026833 211.133575,100.352379 
	C211.387848,104.878242 211.693924,108.939117 212.000000,113.000000 
	C212.000000,114.714355 212.000000,116.428719 211.643616,118.747849 
	C204.625107,167.906448 169.241211,200.735779 129.340866,209.483124 
	C125.558449,210.312347 121.780190,211.160583 118.000000,212.000000 
M66.666100,89.876274 
	C61.692364,74.762680 56.718628,59.649090 51.703899,44.410934 
	C28.330521,60.936317 15.436996,100.921974 25.809513,129.183350 
	C43.527393,129.183350 61.181595,129.183350 79.278725,129.183350 
	C75.010063,115.925644 70.940239,103.285484 66.666100,89.876274 
M143.700073,182.272079 
	C163.202072,172.323349 176.818695,157.119171 184.941238,136.445145 
	C170.389069,125.894600 156.065475,115.509758 141.137192,104.686523 
	C131.697449,133.781982 122.567055,161.923904 113.211159,190.760910 
	C124.526314,189.820099 133.993607,186.992279 143.700073,182.272079 
M94.677628,24.087324 
	C83.453827,25.553949 73.071915,29.371075 63.288891,35.030987 
	C60.671890,36.545040 59.895073,37.959301 60.979168,40.999359 
	C63.660698,48.518982 65.873436,56.204475 68.357124,63.796303 
	C71.011055,71.908516 73.759605,79.989777 76.655037,88.647209 
	C101.278778,70.750351 125.219238,53.350109 149.782990,35.496845 
	C132.484970,25.311516 114.711243,21.451294 94.677628,24.087324 
M189.446945,96.209534 
	C186.402512,73.900803 175.904922,55.870090 158.425171,41.406422 
	C143.790024,52.067238 129.493698,62.481251 114.698669,73.258537 
	C139.423065,91.199364 163.325760,108.543945 187.910034,126.383102 
	C190.393433,115.969002 190.386749,106.560478 189.446945,96.209534 
M103.658127,188.233658 
	C108.811867,172.297272 113.965614,156.360901 119.246109,140.032593 
	C89.099831,140.032593 59.557034,140.032593 29.683758,140.032593 
	C29.892294,141.141342 29.922426,141.962830 30.201319,142.688705 
	C39.721001,167.466156 72.556557,190.339661 99.392693,190.772797 
	C100.726570,190.794312 102.079613,189.628708 103.658127,188.233658 
z"/>
<path fill="#FEFDFD" opacity="1.000000" stroke="none" 
	d="
M118.468658,212.000000 
	C121.780190,211.160583 125.558449,210.312347 129.340866,209.483124 
	C169.241211,200.735779 204.625107,167.906448 211.643616,119.176315 
	C212.000000,149.927307 212.000000,180.854630 212.000000,212.000000 
	C180.979446,212.000000 149.958374,212.000000 118.468658,212.000000 
z"/>
<path fill="#FEFDFD" opacity="1.000000" stroke="none" 
	d="
M212.000000,93.531342 
	C211.187393,90.717728 210.312439,87.449463 209.571625,84.151062 
	C199.636230,39.915245 164.778336,8.079000 119.160423,1.374050 
	C149.926910,1.000000 180.853836,1.000000 212.000000,1.000000 
	C212.000000,31.687214 212.000000,62.374947 212.000000,93.531342 
z"/>
<path fill="#FEFDFD" opacity="1.000000" stroke="none" 
	d="
M91.531342,0.999999 
	C90.888519,1.509570 89.822762,2.297118 88.658951,2.488563 
	C45.654106,9.562795 8.795633,44.434402 1.994031,91.709610 
	C1.947311,92.034332 1.814457,92.346672 1.360911,92.832397 
	C1.000000,62.406815 1.000000,31.813627 1.000000,1.000000 
	C31.020535,1.000000 61.041611,1.000000 91.531342,0.999999 
z"/>
<path fill="#FEFDFD" opacity="1.000000" stroke="none" 
	d="
M0.999998,121.468658 
	C1.583474,122.437828 2.430783,123.826012 2.712063,125.320709 
	C10.965059,169.176331 44.081520,202.234650 87.899796,210.303665 
	C89.199844,210.543060 90.473137,210.927780 91.879456,211.622375 
	C61.739750,212.000000 31.479496,212.000000 1.000000,212.000000 
	C1.000000,181.979462 1.000000,151.958389 0.999998,121.468658 
z"/>
<path fill="#B54848" opacity="1.000000" stroke="none" 
	d="
M100.466118,212.000000 
	C104.824554,211.780563 109.649117,211.561127 114.736832,211.670837 
	C110.310745,212.000000 105.621490,212.000000 100.466118,212.000000 
z"/>
<path fill="#B34444" opacity="1.000000" stroke="none" 
	d="
M212.000000,112.536819 
	C211.693924,108.939117 211.387848,104.878242 211.337448,100.377518 
	C211.593124,99.937668 212.000000,100.000000 212.000000,100.000000 
	C212.000000,104.024544 212.000000,108.049088 212.000000,112.536819 
z"/>
<path fill="#C57070" opacity="1.000000" stroke="none" 
	d="
M212.000000,99.625000 
	C212.000000,100.000000 211.593124,99.937668 211.389252,99.912537 
	C211.261505,99.026833 211.337616,98.166275 211.706863,97.152855 
	C212.000000,97.750000 212.000000,98.500000 212.000000,99.625000 
z"/>
<path fill="#FDF9F9" opacity="1.000000" stroke="none" 
	d="
M66.768250,90.260803 
	C70.940239,103.285484 75.010063,115.925644 79.278725,129.183350 
	C61.181595,129.183350 43.527393,129.183350 25.809513,129.183350 
	C15.436996,100.921974 28.330521,60.936317 51.703899,44.410934 
	C56.718628,59.649090 61.692364,74.762680 66.768250,90.260803 
z"/>
<path fill="#FDFAFA" opacity="1.000000" stroke="none" 
	d="
M143.372681,182.451889 
	C133.993607,186.992279 124.526314,189.820099 113.211159,190.760910 
	C122.567055,161.923904 131.697449,133.781982 141.137192,104.686523 
	C156.065475,115.509758 170.389069,125.894600 184.941238,136.445145 
	C176.818695,157.119171 163.202072,172.323349 143.372681,182.451889 
z"/>
<path fill="#FDFAFA" opacity="1.000000" stroke="none" 
	d="
M95.114441,24.030102 
	C114.711243,21.451294 132.484970,25.311516 149.782990,35.496845 
	C125.219238,53.350109 101.278778,70.750351 76.655037,88.647209 
	C73.759605,79.989777 71.011055,71.908516 68.357124,63.796303 
	C65.873436,56.204475 63.660698,48.518982 60.979168,40.999359 
	C59.895073,37.959301 60.671890,36.545040 63.288891,35.030987 
	C73.071915,29.371075 83.453827,25.553949 95.114441,24.030102 
z"/>
<path fill="#FDFAFA" opacity="1.000000" stroke="none" 
	d="
M189.525177,96.654762 
	C190.386749,106.560478 190.393433,115.969002 187.910034,126.383102 
	C163.325760,108.543945 139.423065,91.199364 114.698669,73.258537 
	C129.493698,62.481251 143.790024,52.067238 158.425171,41.406422 
	C175.904922,55.870090 186.402512,73.900803 189.525177,96.654762 
z"/>
<path fill="#FDFBFB" opacity="1.000000" stroke="none" 
	d="
M103.540924,188.624756 
	C102.079613,189.628708 100.726570,190.794312 99.392693,190.772797 
	C72.556557,190.339661 39.721001,167.466156 30.201319,142.688705 
	C29.922426,141.962830 29.892294,141.141342 29.683758,140.032593 
	C59.557034,140.032593 89.099831,140.032593 119.246109,140.032593 
	C113.965614,156.360901 108.811867,172.297272 103.540924,188.624756 
z"/>
</svg>